<?xml version="1.0" ?><svg height="500" id="svg2" version="1.1" width="500" xmlns="http://www.w3.org/2000/svg" xmlns:cc="http://creativecommons.org/ns#" xmlns:dc="http://purl.org/dc/elements/1.1/" xmlns:inkscape="http://www.inkscape.org/namespaces/inkscape" xmlns:rdf="http://www.w3.org/1999/02/22-rdf-syntax-ns#" xmlns:sodipodi="http://sodipodi.sourceforge.net/DTD/sodipodi-0.dtd" xmlns:svg="http://www.w3.org/2000/svg"><defs id="defs4"/><g id="layer1" transform="translate(0,-552.36218)"><path d="M 50 0 C 22.3 0 -9.483155e-017 22.3 0 50 L 0 450 C 0 477.7 22.3 500 50 500 L 450 500 C 477.7 500 500 477.7 500 450 L 500 50 C 500 22.3 477.7 -9.483155e-017 450 0 L 50 0 z M 144.53125 51.8125 L 168.0625 51.8125 L 183.96875 110.46875 L 199.21875 51.8125 L 221.84375 51.8125 L 194.9375 140.6875 L 194.9375 201.21875 L 172.5625 201.21875 L 172.5625 140.6875 C 170.53479 129.97328 166.04986 114.27564 158.875 93.4375 C 154.15626 79.575834 149.24512 65.670514 144.53125 51.8125 z M 251.8125 88.53125 C 261.92182 88.53125 269.79455 92.32326 275.375 99.9375 C 279.60446 105.56298 281.625 114.28782 281.625 126.1875 L 281.625 165.15625 C 281.625 176.98899 279.60446 185.77304 275.375 191.34375 C 269.79455 198.93608 261.92182 202.75 251.8125 202.75 C 241.76404 202.75 233.92055 198.93608 228.34375 191.34375 C 224.05222 185.77304 222.03125 176.98899 222.03125 165.15625 L 222.03125 126.1875 C 222.03125 114.2866 224.05222 105.56298 228.34375 99.9375 C 233.91933 92.32326 241.76282 88.53125 251.8125 88.53125 z M 298.21875 89.875 L 318.34375 89.875 L 318.34375 171.84375 C 318.34375 176.57101 318.35033 179.02783 318.59375 179.6875 C 319.03921 182.8106 320.60443 184.40625 323.3125 184.40625 C 327.346 184.40625 331.59327 181.28677 336.0625 174.96875 L 336.0625 89.875 L 356.21875 89.875 L 356.21875 201.21875 L 336.0625 201.21875 L 336.0625 189.0625 C 328.03323 198.2675 320.35865 202.75 313 202.75 C 306.50672 202.75 302.04313 200.10762 300.03125 194.46875 C 298.91759 191.0937 298.21875 185.76513 298.21875 177.90625 L 298.21875 89.875 z M 251.8125 106.6875 C 245.30826 106.6875 242.1875 111.8246 242.1875 122.125 L 242.1875 168.96875 C 242.1875 179.27159 245.30826 184.40625 251.8125 184.40625 C 258.31674 184.40625 261.4375 179.27159 261.4375 168.96875 L 261.4375 122.125 C 261.4375 111.8246 258.31795 106.6875 251.8125 106.6875 z M 243.71875 219.4375 C 246.26129 219.4375 248.80242 219.4375 251.34375 219.4375 C 253.88386 219.4375 256.42742 219.4375 258.96875 219.4375 C 297.7264 219.4375 336.62251 219.73729 375.0625 224.03125 C 392.35642 225.96402 406.71041 238.93102 410.75 256.5 C 416.49963 281.52135 416.46875 308.80237 416.46875 334.5625 L 416.46875 335.65625 C 416.46632 361.09628 416.35558 387.98786 410.6875 412.65625 C 406.64669 430.22402 392.26388 443.19345 374.96875 445.125 C 336.4886 449.42627 297.5815 449.6875 258.78125 449.6875 C 256.28131 449.6875 253.78119 449.68993 251.28125 449.6875 C 248.78496 449.68993 246.27998 449.6875 243.78125 449.6875 C 204.97978 449.6875 166.07633 449.42627 127.59375 445.125 C 110.29862 443.19345 95.915805 430.22402 91.875 412.65625 C 86.261689 388.23007 86.127434 361.6548 86.125 336.4375 L 86.125 334.5625 C 86.125 308.80237 86.187872 281.52135 91.9375 256.5 C 95.978305 238.93102 110.36112 225.96402 127.65625 224.03125 C 166.0938 219.73607 204.96232 219.4375 243.71875 219.4375 z M 110.75 260.53125 L 110.75 281.34375 L 134.25 281.34375 L 134.25 408.40625 L 156.46875 408.40625 L 156.46875 281.34375 L 180.375 281.34375 L 180.375 260.53125 L 110.75 260.53125 z M 257.96875 260.53125 L 257.96875 408.40625 L 277.9375 408.40625 L 277.9375 397.71875 C 284.60726 405.97197 291.46553 409.90625 298.5625 409.90625 C 306.50901 409.90625 311.82236 405.72118 314.5 397.53125 C 315.82178 392.85998 316.53125 385.50945 316.53125 375.3125 L 316.53125 331.46875 C 316.53125 321.04299 315.823 313.74643 314.5 309.3125 C 311.82236 301.06171 306.50901 296.875 298.5625 296.875 C 291.22089 296.875 284.38331 300.87938 277.9375 308.8125 L 277.9375 260.53125 L 257.96875 260.53125 z M 362.125 296.875 C 351.93657 296.875 343.99272 300.64629 338.21875 308.1875 C 333.97956 313.75943 332.0625 322.35068 332.0625 334.125 L 332.0625 372.71875 C 332.0625 384.42613 334.2259 393.11149 338.46875 398.625 C 344.2415 406.15161 352.1822 409.90625 362.625 409.90625 C 373.05076 409.90625 381.26287 405.9676 386.78125 397.96875 C 389.21304 394.43791 390.77174 390.43393 391.4375 386 C 391.62493 384.00881 391.84375 379.57772 391.84375 373.15625 L 391.84375 370.21875 L 371.5 370.21875 C 371.5 378.22612 371.24385 382.6619 371.0625 383.75 C 369.92207 389.0919 367.04699 391.78125 362.125 391.78125 C 355.26659 391.78125 351.9375 386.6657 351.9375 376.46875 L 351.9375 356.9375 L 391.84375 356.9375 L 391.84375 334.125 C 391.84375 322.35068 389.86827 313.75943 385.6875 308.1875 C 380.0961 300.64629 372.1406 296.875 362.125 296.875 z M 183.28125 298.21875 L 183.28125 385.34375 C 183.28125 393.11987 183.94437 398.38143 185.03125 401.71875 C 187.02853 407.29677 191.47504 409.90625 197.90625 409.90625 C 205.24542 409.90625 212.78319 405.47777 220.71875 396.375 L 220.71875 408.40625 L 240.6875 408.40625 L 240.6875 298.21875 L 220.71875 298.21875 L 220.71875 382.4375 C 216.28725 388.69101 212.10048 391.75 208.09375 391.75 C 205.42584 391.75 203.89188 390.18643 203.40625 387.09375 C 203.22125 386.43408 203.21875 384.02232 203.21875 379.34375 L 203.21875 298.21875 L 183.28125 298.21875 z M 287.875 314.84375 C 293.63315 314.84375 296.5625 319.92147 296.5625 329.875 L 296.5625 376.90625 C 296.5625 386.85978 293.63315 391.75 287.875 391.75 C 284.59245 391.75 281.27847 390.18107 277.9375 386.84375 L 277.9375 319.6875 C 281.27847 316.394 284.59367 314.84375 287.875 314.84375 z M 361.96875 314.84375 C 368.57766 314.84375 371.90747 319.93414 371.90625 330.125 L 371.90625 340.3125 L 351.9375 340.3125 L 351.9375 330.125 C 351.9375 319.93536 355.29168 314.84375 361.96875 314.84375 z " id="rect2995" style="fill:#000000;fill-opacity:1;fill-rule:nonzero" transform="translate(0,552.36218)"/><g id="形状_1_3_" style="enable-background:new" transform="matrix(1.21711,0,0,1.21711,112.82456,368.85377)"><g id="形状_1"><g id="g2991"/></g></g><g id="形状_1_2_" style="enable-background:new" transform="matrix(1.21711,0,0,1.21711,-175.03531,575.68723)"><g id="形状_1_1_"><g id="g2997"/></g></g></g></svg>